<svg width="327" height="43" viewBox="0 0 327 43" fill="none" xmlns="http://www.w3.org/2000/svg">
<rect width="327" height="43" rx="8" fill="#A73261"/>
<path d="M140.614 16.08H139.318V18.656C139.318 21.376 137.573 24.128 135.461 25.136L136.261 26.208C137.941 25.344 139.318 23.552 139.974 21.392C140.661 23.44 142.037 25.136 143.67 25.936L144.453 24.88C142.326 23.92 140.614 21.28 140.614 18.656V16.08ZM145.958 14.832V29.216H147.27V14.832H145.958ZM158.17 21.856C156.058 21.136 154.682 19.36 154.682 17.456V16.896H157.85V15.84H150.154V16.896H153.37V17.472C153.37 19.52 151.93 21.376 149.77 22.128L150.458 23.168C152.138 22.544 153.434 21.28 154.042 19.68C154.666 21.152 155.898 22.32 157.498 22.88L158.17 21.856ZM151.626 25.312H159.658V29.2H160.97V24.256H151.626V25.312ZM163.098 18.608H160.97V14.848H159.658V23.488H160.97V19.696H163.098V18.608ZM168.351 24.896C167.055 24.896 166.111 23.968 166.111 22.688C166.111 21.392 167.055 20.464 168.351 20.464C169.663 20.464 170.607 21.392 170.607 22.688C170.607 23.968 169.663 24.896 168.351 24.896ZM168.351 19.376C166.335 19.376 164.879 20.752 164.879 22.688C164.879 24.64 166.335 25.984 168.351 25.984C170.399 25.984 171.855 24.64 171.855 22.688C171.855 20.752 170.399 19.376 168.351 19.376ZM168.991 15.008H167.679V17.136H164.063V18.192H172.527V17.136H168.991V15.008ZM177.551 20.736H175.199V14.848H173.887V29.184H175.199V21.84H177.551V20.736ZM179.3 16.384V17.44H184.692C184.42 20.848 182.5 23.6 178.644 25.44L179.348 26.512C184.116 24.176 186.02 20.528 186.02 16.384H179.3ZM188.916 14.832V29.184H190.228V14.832H188.916Z" fill="white"/>
</svg>
