<svg width="327" height="120" viewBox="0 0 327 120" fill="none" xmlns="http://www.w3.org/2000/svg">
<circle cx="107.5" cy="16.5" r="4.5" fill="#A6C43A"/>
<circle cx="107.5" cy="34.5" r="4.5" fill="#A6C43A"/>
<circle cx="102.5" cy="25.5" r="4.5" fill="#A6C43A"/>
<circle cx="117.5" cy="16.5" r="4.5" fill="#A6C43A"/>
<circle cx="117.5" cy="34.5" r="4.5" fill="#A6C43A"/>
<circle cx="112.5" cy="25.5" r="4.5" fill="#A6C43A"/>
<circle cx="112.5" cy="43.5" r="4.5" fill="#A6C43A"/>
<circle cx="122.5" cy="25.5" r="4.5" fill="#A6C43A"/>
<path d="M122.161 2C120.007 3.13898 119.468 5.9548 119.468 7.22034C118.881 6.46102 117.592 6.27119 117.021 6.27119C116.776 7.69492 118.734 9.88983 122.161 12.5C125.343 14.9237 128.951 16 128.951 16C128.451 14 127.872 13.3898 127.546 13.3898C128.951 13.3898 133.288 11.6328 133.451 11C132.276 9.86102 129.441 9.5 128.951 9.5C130.714 7.98136 130.615 4.84463 130.451 3.5C127.71 3.12034 125.012 4.52542 123.951 5C124.147 3.67119 122.65 2.47458 122.161 2Z" fill="black"/>
<path d="M102.291 2C104.445 3.13898 104.983 5.9548 104.983 7.22034C105.571 6.46102 106.86 6.27119 107.431 6.27119C107.676 7.69492 105.717 9.88983 102.291 12.5C99.1087 14.9237 95.5 16 95.5 16C96 14 96.5794 13.3898 96.9058 13.3898C95.5 13.3898 91.1632 11.6328 91 11C92.1749 9.86102 95.0105 9.5 95.5 9.5C93.7377 7.98136 93.8368 4.84463 94 3.5C96.7414 3.12034 99.4393 4.52542 100.5 5C100.304 3.67119 101.801 2.47458 102.291 2Z" fill="black"/>
<path d="M112.532 12C110.376 4.66667 115.227 1 119 1" stroke="black" stroke-width="2" stroke-linecap="round" stroke-linejoin="round"/>
<path d="M112.5 12.5C112.5 7 108.86 3.22341 106 3.48462" stroke="black" stroke-linecap="round" stroke-linejoin="round"/>
<circle cx="158.5" cy="16.5" r="4.5" fill="#A3255A"/>
<circle cx="158.5" cy="34.5" r="4.5" fill="#A3255A"/>
<circle cx="153.5" cy="25.5" r="4.5" fill="#A3255A"/>
<circle cx="168.5" cy="16.5" r="4.5" fill="#A3255A"/>
<circle cx="168.5" cy="34.5" r="4.5" fill="#A3255A"/>
<circle cx="163.5" cy="25.5" r="4.5" fill="#A3255A"/>
<circle cx="163.5" cy="43.5" r="4.5" fill="#A3255A"/>
<circle cx="173.5" cy="25.5" r="4.5" fill="#A3255A"/>
<path d="M173.161 2C171.007 3.13898 170.468 5.9548 170.468 7.22034C169.881 6.46102 168.592 6.27119 168.021 6.27119C167.776 7.69492 169.734 9.88983 173.161 12.5C176.343 14.9237 179.951 16 179.951 16C179.451 14 178.872 13.3898 178.546 13.3898C179.951 13.3898 184.288 11.6328 184.451 11C183.276 9.86102 180.441 9.5 179.951 9.5C181.714 7.98136 181.615 4.84463 181.451 3.5C178.71 3.12034 176.012 4.52542 174.951 5C175.147 3.67119 173.65 2.47458 173.161 2Z" fill="black"/>
<path d="M153.291 2C155.445 3.13898 155.983 5.9548 155.983 7.22034C156.571 6.46102 157.86 6.27119 158.431 6.27119C158.676 7.69492 156.717 9.88983 153.291 12.5C150.109 14.9237 146.5 16 146.5 16C147 14 147.579 13.3898 147.906 13.3898C146.5 13.3898 142.163 11.6328 142 11C143.175 9.86102 146.01 9.5 146.5 9.5C144.738 7.98136 144.837 4.84463 145 3.5C147.741 3.12034 150.439 4.52542 151.5 5C151.304 3.67119 152.801 2.47458 153.291 2Z" fill="black"/>
<path d="M163.532 12C161.376 4.66667 166.227 1 170 1" stroke="black" stroke-width="2" stroke-linecap="round" stroke-linejoin="round"/>
<path d="M163.5 12.5C163.5 7 159.86 3.22341 157 3.48462" stroke="black" stroke-linecap="round" stroke-linejoin="round"/>
<circle cx="209.5" cy="16.5" r="4.5" fill="#AFC94F"/>
<circle cx="209.5" cy="34.5" r="4.5" fill="#AFC94F"/>
<circle cx="204.5" cy="25.5" r="4.5" fill="#AFC94F"/>
<circle cx="219.5" cy="16.5" r="4.5" fill="#AFC94F"/>
<circle cx="219.5" cy="34.5" r="4.5" fill="#AFC94F"/>
<circle cx="214.5" cy="25.5" r="4.5" fill="#AFC94F"/>
<circle cx="214.5" cy="43.5" r="4.5" fill="#AFC94F"/>
<circle cx="224.5" cy="25.5" r="4.5" fill="#AFC94F"/>
<path d="M224.161 2C222.007 3.13898 221.468 5.9548 221.468 7.22034C220.881 6.46102 219.592 6.27119 219.021 6.27119C218.776 7.69492 220.734 9.88983 224.161 12.5C227.343 14.9237 230.951 16 230.951 16C230.451 14 229.872 13.3898 229.546 13.3898C230.951 13.3898 235.288 11.6328 235.451 11C234.276 9.86102 231.441 9.5 230.951 9.5C232.714 7.98136 232.615 4.84463 232.451 3.5C229.71 3.12034 227.012 4.52542 225.951 5C226.147 3.67119 224.65 2.47458 224.161 2Z" fill="black"/>
<path d="M204.291 2C206.445 3.13898 206.983 5.9548 206.983 7.22034C207.571 6.46102 208.86 6.27119 209.431 6.27119C209.676 7.69492 207.717 9.88983 204.291 12.5C201.109 14.9237 197.5 16 197.5 16C198 14 198.579 13.3898 198.906 13.3898C197.5 13.3898 193.163 11.6328 193 11C194.175 9.86102 197.01 9.5 197.5 9.5C195.738 7.98136 195.837 4.84463 196 3.5C198.741 3.12034 201.439 4.52542 202.5 5C202.304 3.67119 203.801 2.47458 204.291 2Z" fill="black"/>
<path d="M214.532 12C212.376 4.66667 217.227 1 221 1" stroke="black" stroke-width="2" stroke-linecap="round" stroke-linejoin="round"/>
<path d="M214.5 12.5C214.5 7 210.86 3.22341 208 3.48462" stroke="black" stroke-linecap="round" stroke-linejoin="round"/>
<path d="M132.083 67.432L129.755 76H129.059L127.259 69.7C127.099 69.108 126.979 68.64 126.899 68.296C126.875 68.456 126.835 68.648 126.779 68.872C126.731 69.096 126.671 69.336 126.599 69.592L124.811 76H124.115L121.823 67.432H122.543L124.091 73.312C124.179 73.648 124.255 73.956 124.319 74.236C124.391 74.508 124.451 74.776 124.499 75.04C124.547 74.768 124.603 74.488 124.667 74.2C124.731 73.912 124.811 73.604 124.907 73.276L126.563 67.432H127.259L128.963 73.312C129.075 73.656 129.163 73.972 129.227 74.26C129.291 74.54 129.347 74.808 129.395 75.064C129.427 74.8 129.475 74.532 129.539 74.26C129.603 73.98 129.683 73.668 129.779 73.324L131.363 67.432H132.083ZM153.472 76H150.952V75.568L151.864 75.436V68.008L150.952 67.864V67.432H153.472V67.864L152.56 68.008V75.436L153.472 75.568V76ZM179.614 76H178.87L173.914 68.512H173.878C173.894 68.824 173.906 69.156 173.914 69.508C173.922 69.852 173.926 70.216 173.926 70.6V76H173.278V67.432H174.022L178.966 74.896H179.014C178.998 74.648 178.986 74.332 178.978 73.948C178.97 73.556 178.966 73.196 178.966 72.868V67.432H179.614V76ZM204.724 76H200.02V67.432H204.724V68.056H200.716V71.2H204.496V71.812H200.716V75.376H204.724V76Z" fill="black"/>
<path d="M44.4602 105.3C42.4602 105.72 40.6202 105.86 37.2802 105.88V101.64H42.9202V99.54H34.6602V108H36.2202C40.3402 108 42.4602 107.88 44.7202 107.4L44.4602 105.3ZM42.4802 114.64C40.1602 114.64 38.8602 114.1 38.8602 113C38.8602 111.88 40.1602 111.36 42.4802 111.36C44.8202 111.36 46.1202 111.88 46.1202 113C46.1202 114.1 44.8202 114.64 42.4802 114.64ZM42.4802 109.26C38.7002 109.26 36.2602 110.66 36.2602 113C36.2602 115.34 38.7002 116.74 42.4802 116.74C46.3002 116.74 48.7202 115.34 48.7202 113C48.7202 110.66 46.3002 109.26 42.4802 109.26ZM48.5602 102.66V98.28H45.9002V108.94H48.5602V104.8H50.9602V102.66H48.5602ZM67.2186 98.32H64.5586V111.74H67.2186V98.32ZM63.1986 106.86C60.1986 105.9 58.9186 103.54 58.9186 101.12V99.32H56.2386V101.12C56.2386 103.56 54.9186 106.14 51.8586 107.18L53.1986 109.28C55.3386 108.54 56.7786 107.04 57.6186 105.18C58.4186 106.9 59.8186 108.26 61.8586 108.96L63.1986 106.86ZM57.5986 114.3V110.46H54.9586V116.4H67.6786V114.3H57.5986ZM79.577 108.68C80.077 105.64 80.077 103.4 80.077 101.62V100.12H70.597V102.22H77.477C77.477 103.86 77.417 105.84 76.997 108.46L79.577 108.68ZM75.557 105.4H72.957V110.84C71.797 110.86 70.677 110.86 69.657 110.86L69.897 113.02C73.097 113 77.217 112.92 80.957 112.28L80.817 110.38C79.137 110.58 77.337 110.7 75.557 110.76V105.4ZM86.777 105.7H84.297V98.28H81.657V116.7H84.297V107.9H86.777V105.7ZM103.391 105.54C100.651 104.78 99.3508 103.02 99.1708 101.24H102.751V99.12H92.8108V101.24H96.4508C96.2708 103.22 94.9308 105.12 92.0908 105.94L93.3508 108C95.5508 107.36 97.0508 106.02 97.8708 104.34C98.6908 105.84 100.131 107.02 102.191 107.58L103.391 105.54ZM97.3908 113.36H106.911V108.46H94.7508V110.44H104.311V111.5H94.7708V116.54H107.431V114.54H97.3908V113.36ZM106.911 101.92V98.3H104.271V107.72H106.911V104.06H109.331V101.92H106.911ZM120.045 110.34C118.705 110.34 117.805 108.88 117.805 106.14C117.805 103.42 118.705 101.96 120.045 101.96C121.405 101.96 122.305 103.42 122.305 106.14C122.305 108.88 121.405 110.34 120.045 110.34ZM127.825 98.28V104.92H124.745C124.385 101.6 122.525 99.58 120.045 99.58C117.305 99.58 115.285 102.1 115.285 106.14C115.285 110.2 117.305 112.74 120.045 112.74C122.605 112.74 124.485 110.58 124.765 107.06H127.825V116.76H130.465V98.28H127.825ZM141.223 100.4C143.903 100.4 145.163 100.78 145.163 101.6C145.163 102.46 143.903 102.82 141.223 102.82C138.563 102.82 137.303 102.46 137.303 101.6C137.303 100.78 138.563 100.4 141.223 100.4ZM141.223 104.74C145.443 104.74 147.903 103.64 147.903 101.6C147.903 99.58 145.443 98.46 141.223 98.46C137.023 98.46 134.563 99.58 134.563 101.6C134.563 103.64 137.023 104.74 141.223 104.74ZM149.543 107.62V105.54H132.903V107.62H139.883V108.82H134.803V110.76H144.923V111.74H134.823V116.58H148.003V114.6H137.443V113.56H147.523V108.82H142.523V107.62H149.543ZM154.481 106.98H160.461V99.86H151.761V101.96H157.761V104.9H151.781V112.48H153.441C156.781 112.48 159.481 112.36 162.481 111.84L162.201 109.7C159.601 110.14 157.281 110.28 154.481 110.3V106.98ZM163.481 98.28V116.76H166.121V98.28H163.481ZM183.54 103.28H173.4V98.96H170.76V105.38H183.54V103.28ZM173.24 110.84H170.58V116.34H183.64V114.22H173.24V110.84ZM168.7 107.26V109.38H185.38V107.26H168.7ZM194.274 103.9C194.274 102.46 195.314 101.62 196.714 101.62C198.114 101.62 199.174 102.46 199.174 103.9C199.174 105.34 198.114 106.2 196.714 106.2C195.314 106.2 194.274 105.34 194.274 103.9ZM198.054 108.28C200.214 107.8 201.734 106.12 201.734 103.9C201.734 101.26 199.574 99.36 196.714 99.36C193.874 99.36 191.714 101.26 191.714 103.9C191.714 106.14 193.254 107.84 195.434 108.3V110.9C193.894 110.92 192.394 110.92 191.094 110.92L191.414 113.06C194.514 113.08 198.614 113.08 202.454 112.36L202.234 110.46C200.894 110.62 199.494 110.74 198.054 110.8V108.28ZM208.254 105.52H205.834V98.28H203.194V116.7H205.834V107.7H208.254V105.52ZM224.492 98.32H221.832V111.54H224.492V98.32ZM212.032 104.16C212.032 102.64 213.112 101.76 214.472 101.76C215.852 101.76 216.892 102.64 216.892 104.16C216.892 105.64 215.852 106.54 214.472 106.54C213.112 106.54 212.032 105.64 212.032 104.16ZM219.472 104.16C219.472 101.44 217.292 99.48 214.472 99.48C211.652 99.48 209.452 101.44 209.452 104.16C209.452 106.84 211.652 108.82 214.472 108.82C217.292 108.82 219.472 106.84 219.472 104.16ZM214.872 114.3V110.24H212.232V116.4H224.952V114.3H214.872ZM238.206 101.92H241.966V107.14H238.206V101.92ZM241.406 112.52V109.24H247.026V107.14H244.586V101.92H247.086V99.82H233.086V101.92H235.586V107.14H233.186V109.24H238.766V112.52H231.786V114.64H248.466V112.52H241.406ZM259.324 112.48V108.64H264.584V106.52H254.284V101.68H264.444V99.56H251.624V108.64H256.684V112.48H249.684V114.64H266.364V112.48H259.324ZM282.423 103.28H272.283V98.96H269.643V105.38H282.423V103.28ZM272.123 110.84H269.463V116.34H282.523V114.22H272.123V110.84ZM267.583 107.26V109.38H284.263V107.26H267.583ZM287.361 110.54V109.88C287.361 109.187 287.488 108.607 287.741 108.14C288.008 107.673 288.474 107.18 289.141 106.66C289.808 106.153 290.274 105.733 290.541 105.4C290.821 105.067 290.961 104.653 290.961 104.16C290.961 103.653 290.781 103.267 290.421 103C290.074 102.733 289.574 102.6 288.921 102.6C288.334 102.6 287.774 102.687 287.241 102.86C286.708 103.033 286.174 103.253 285.641 103.52L284.741 101.64C285.354 101.307 286.021 101.04 286.741 100.84C287.461 100.627 288.254 100.52 289.121 100.52C290.468 100.52 291.508 100.847 292.241 101.5C292.974 102.14 293.341 102.987 293.341 104.04C293.341 104.613 293.248 105.107 293.061 105.52C292.888 105.92 292.621 106.293 292.261 106.64C291.914 106.987 291.494 107.353 291.001 107.74C290.588 108.06 290.274 108.333 290.061 108.56C289.848 108.787 289.701 109.013 289.621 109.24C289.541 109.453 289.501 109.72 289.501 110.04V110.54H287.361ZM286.981 113.72C286.981 113.16 287.128 112.767 287.421 112.54C287.728 112.3 288.094 112.18 288.521 112.18C288.934 112.18 289.288 112.3 289.581 112.54C289.888 112.767 290.041 113.16 290.041 113.72C290.041 114.267 289.888 114.66 289.581 114.9C289.288 115.14 288.934 115.26 288.521 115.26C288.094 115.26 287.728 115.14 287.421 114.9C287.128 114.66 286.981 114.267 286.981 113.72Z" fill="black"/>
</svg>
