<svg width="327" height="84" viewBox="0 0 327 84" fill="none" xmlns="http://www.w3.org/2000/svg">
<circle cx="107.5" cy="16.5" r="4.5" fill="#A6C43A"/>
<circle cx="107.5" cy="34.5" r="4.5" fill="#A6C43A"/>
<circle cx="102.5" cy="25.5" r="4.5" fill="#A6C43A"/>
<circle cx="117.5" cy="16.5" r="4.5" fill="#A6C43A"/>
<circle cx="117.5" cy="34.5" r="4.5" fill="#A6C43A"/>
<circle cx="112.5" cy="25.5" r="4.5" fill="#A6C43A"/>
<circle cx="112.5" cy="43.5" r="4.5" fill="#A6C43A"/>
<circle cx="122.5" cy="25.5" r="4.5" fill="#A6C43A"/>
<path d="M122.161 2C120.007 3.13898 119.468 5.9548 119.468 7.22034C118.881 6.46102 117.592 6.27119 117.021 6.27119C116.776 7.69492 118.734 9.88983 122.161 12.5C125.343 14.9237 128.951 16 128.951 16C128.451 14 127.872 13.3898 127.546 13.3898C128.951 13.3898 133.288 11.6328 133.451 11C132.276 9.86102 129.441 9.5 128.951 9.5C130.714 7.98136 130.615 4.84463 130.451 3.5C127.71 3.12034 125.012 4.52542 123.951 5C124.147 3.67119 122.65 2.47458 122.161 2Z" fill="black"/>
<path d="M102.291 2C104.445 3.13898 104.983 5.9548 104.983 7.22034C105.571 6.46102 106.86 6.27119 107.431 6.27119C107.676 7.69492 105.717 9.88983 102.291 12.5C99.1087 14.9237 95.5 16 95.5 16C96 14 96.5794 13.3898 96.9058 13.3898C95.5 13.3898 91.1632 11.6328 91 11C92.1749 9.86102 95.0105 9.5 95.5 9.5C93.7377 7.98136 93.8368 4.84463 94 3.5C96.7414 3.12034 99.4393 4.52542 100.5 5C100.304 3.67119 101.801 2.47458 102.291 2Z" fill="black"/>
<path d="M112.532 12C110.376 4.66667 115.227 1 119 1" stroke="black" stroke-width="2" stroke-linecap="round" stroke-linejoin="round"/>
<path d="M112.5 12.5C112.5 7 108.86 3.22341 106 3.48462" stroke="black" stroke-linecap="round" stroke-linejoin="round"/>
<circle cx="158.5" cy="16.5" r="4.5" fill="#A3255A"/>
<circle cx="158.5" cy="34.5" r="4.5" fill="#A3255A"/>
<circle cx="153.5" cy="25.5" r="4.5" fill="#A3255A"/>
<circle cx="168.5" cy="16.5" r="4.5" fill="#A3255A"/>
<circle cx="168.5" cy="34.5" r="4.5" fill="#A3255A"/>
<circle cx="163.5" cy="25.5" r="4.5" fill="#A3255A"/>
<circle cx="163.5" cy="43.5" r="4.5" fill="#A3255A"/>
<circle cx="173.5" cy="25.5" r="4.5" fill="#A3255A"/>
<path d="M173.161 2C171.007 3.13898 170.468 5.9548 170.468 7.22034C169.881 6.46102 168.592 6.27119 168.021 6.27119C167.776 7.69492 169.734 9.88983 173.161 12.5C176.343 14.9237 179.951 16 179.951 16C179.451 14 178.872 13.3898 178.546 13.3898C179.951 13.3898 184.288 11.6328 184.451 11C183.276 9.86102 180.441 9.5 179.951 9.5C181.714 7.98136 181.615 4.84463 181.451 3.5C178.71 3.12034 176.012 4.52542 174.951 5C175.147 3.67119 173.65 2.47458 173.161 2Z" fill="black"/>
<path d="M153.291 2C155.445 3.13898 155.983 5.9548 155.983 7.22034C156.571 6.46102 157.86 6.27119 158.431 6.27119C158.676 7.69492 156.717 9.88983 153.291 12.5C150.109 14.9237 146.5 16 146.5 16C147 14 147.579 13.3898 147.906 13.3898C146.5 13.3898 142.163 11.6328 142 11C143.175 9.86102 146.01 9.5 146.5 9.5C144.738 7.98136 144.837 4.84463 145 3.5C147.741 3.12034 150.439 4.52542 151.5 5C151.304 3.67119 152.801 2.47458 153.291 2Z" fill="black"/>
<path d="M163.532 12C161.376 4.66667 166.227 1 170 1" stroke="black" stroke-width="2" stroke-linecap="round" stroke-linejoin="round"/>
<path d="M163.5 12.5C163.5 7 159.86 3.22341 157 3.48462" stroke="black" stroke-linecap="round" stroke-linejoin="round"/>
<circle cx="209.5" cy="16.5" r="4.5" fill="#AFC94F"/>
<circle cx="209.5" cy="34.5" r="4.5" fill="#AFC94F"/>
<circle cx="204.5" cy="25.5" r="4.5" fill="#AFC94F"/>
<circle cx="219.5" cy="16.5" r="4.5" fill="#AFC94F"/>
<circle cx="219.5" cy="34.5" r="4.5" fill="#AFC94F"/>
<circle cx="214.5" cy="25.5" r="4.5" fill="#AFC94F"/>
<circle cx="214.5" cy="43.5" r="4.5" fill="#AFC94F"/>
<circle cx="224.5" cy="25.5" r="4.5" fill="#AFC94F"/>
<path d="M224.161 2C222.007 3.13898 221.468 5.9548 221.468 7.22034C220.881 6.46102 219.592 6.27119 219.021 6.27119C218.776 7.69492 220.734 9.88983 224.161 12.5C227.343 14.9237 230.951 16 230.951 16C230.451 14 229.872 13.3898 229.546 13.3898C230.951 13.3898 235.288 11.6328 235.451 11C234.276 9.86102 231.441 9.5 230.951 9.5C232.714 7.98136 232.615 4.84463 232.451 3.5C229.71 3.12034 227.012 4.52542 225.951 5C226.147 3.67119 224.65 2.47458 224.161 2Z" fill="black"/>
<path d="M204.291 2C206.445 3.13898 206.983 5.9548 206.983 7.22034C207.571 6.46102 208.86 6.27119 209.431 6.27119C209.676 7.69492 207.717 9.88983 204.291 12.5C201.109 14.9237 197.5 16 197.5 16C198 14 198.579 13.3898 198.906 13.3898C197.5 13.3898 193.163 11.6328 193 11C194.175 9.86102 197.01 9.5 197.5 9.5C195.738 7.98136 195.837 4.84463 196 3.5C198.741 3.12034 201.439 4.52542 202.5 5C202.304 3.67119 203.801 2.47458 204.291 2Z" fill="black"/>
<path d="M214.532 12C212.376 4.66667 217.227 1 221 1" stroke="black" stroke-width="2" stroke-linecap="round" stroke-linejoin="round"/>
<path d="M214.5 12.5C214.5 7 210.86 3.22341 208 3.48462" stroke="black" stroke-linecap="round" stroke-linejoin="round"/>
<path d="M132.083 67.432L129.755 76H129.059L127.259 69.7C127.099 69.108 126.979 68.64 126.899 68.296C126.875 68.456 126.835 68.648 126.779 68.872C126.731 69.096 126.671 69.336 126.599 69.592L124.811 76H124.115L121.823 67.432H122.543L124.091 73.312C124.179 73.648 124.255 73.956 124.319 74.236C124.391 74.508 124.451 74.776 124.499 75.04C124.547 74.768 124.603 74.488 124.667 74.2C124.731 73.912 124.811 73.604 124.907 73.276L126.563 67.432H127.259L128.963 73.312C129.075 73.656 129.163 73.972 129.227 74.26C129.291 74.54 129.347 74.808 129.395 75.064C129.427 74.8 129.475 74.532 129.539 74.26C129.603 73.98 129.683 73.668 129.779 73.324L131.363 67.432H132.083ZM153.472 76H150.952V75.568L151.864 75.436V68.008L150.952 67.864V67.432H153.472V67.864L152.56 68.008V75.436L153.472 75.568V76ZM179.614 76H178.87L173.914 68.512H173.878C173.894 68.824 173.906 69.156 173.914 69.508C173.922 69.852 173.926 70.216 173.926 70.6V76H173.278V67.432H174.022L178.966 74.896H179.014C178.998 74.648 178.986 74.332 178.978 73.948C178.97 73.556 178.966 73.196 178.966 72.868V67.432H179.614V76ZM204.724 76H200.02V67.432H204.724V68.056H200.716V71.2H204.496V71.812H200.716V75.376H204.724V76Z" fill="black"/>
</svg>
